<svg width="512" height="512" xmlns="http://www.w3.org/2000/svg">

 <g>
  <title>background</title>
  <rect fill="none" id="canvas_background" height="402" width="582" y="-1" x="-1"/>
 </g>
 <g>
  <title>Layer 1</title>
  <path fill="#ffffff" id="svg_2" d="m480,253c-1.7,-123.7 -103.3,-222.6 -227,-221s-222.6,103.3 -221,227c1.7,123.7 103.3,222.6 227,221c123.7,-1.7 222.7,-103.3 221,-227zm-224,-141.1c17.7,0 32,14.3 32,32s-14.3,32 -32,32c-17.7,0 -32,-14.3 -32,-32s14.3,-32 32,-32zm44,283.1l-88,0l0,-11l22,0l0,-160l-22,0l0,-12l66,0l0,172l22,0l0,11z"/>
 </g>
</svg>